# This file uses centimeters as units for non-parametric coordinates.

mtllib rock10.mtl
g default
v 0.131563 0.644183 -78.243382
v 0.253762 3.151660 -78.192089
v 2.524855 0.644182 -79.120573
v 2.562314 2.930281 -78.976568
v 1.005616 0.644182 -75.848668
v 1.127816 3.061514 -75.797375
v 3.398909 0.644181 -76.725859
v 3.436368 2.840134 -76.581854
v 3.795372 3.220023 -75.059388
v 3.685213 0.644184 -75.123852
v 1.291920 0.644185 -74.246661
v 2.756026 5.326166 -79.023540
v 3.630080 5.236019 -76.628826
v 5.295828 2.764887 -77.263495
v 5.258217 0.644181 -77.407334
v 6.102378 2.814184 -75.377403
v 5.980341 0.644180 -75.428873
v 4.371576 2.856843 -79.639699
v 4.334117 0.644182 -79.783704
v 5.208170 0.644181 -77.388990
v 5.245628 2.766696 -77.244985
v -0.848282 1.364323 -77.255333
v -0.780435 2.778654 -77.226855
v -0.295154 2.728604 -75.897291
v -0.363001 1.314273 -75.925769
v 0.037928 1.272923 -74.827312
v 3.194322 3.456160 -75.673468
v 2.004588 3.562992 -75.265674
v 3.287572 4.677004 -75.690808
v 2.060532 4.729142 -75.242198
v 3.027265 2.402168 -74.351342
v 2.961027 0.644187 -74.379145
v 4.271359 2.172741 -74.516681
v 4.205120 0.644185 -74.544485
v 0.262978 3.343772 -78.188221
v 1.076259 5.349720 -76.191445
v 2.316476 5.344008 -78.862435
v -0.232847 2.722177 -75.726582
v 0.058433 1.700357 -74.818705
v 0.924279 3.092372 -74.421304
v 1.150453 3.083124 -75.670703
v 0.924332 3.092398 -74.421279
v 1.341317 1.817172 -74.225927
v 2.841219 3.266020 -74.713181
v 1.076281 5.349718 -76.191385
v 1.175243 4.050216 -75.777467
v 2.060485 4.729176 -75.242226
v 2.442127 5.284238 -76.193416
vn -0.329963 0.047642 -0.942791
vn -0.329963 0.047642 -0.942791
vn -0.329963 0.047642 -0.942791
vn -0.329963 0.047642 -0.942791
vn -0.234207 0.964528 0.121793
vn -0.234207 0.964528 0.121793
vn -0.234207 0.964528 0.121793
vn -0.234207 0.964528 0.121793
vn -0.938240 0.038083 0.343884
vn -0.938240 0.038083 0.343884
vn -0.938240 0.038084 0.343884
vn -0.938240 0.038084 0.343884
vn -0.938240 0.038084 0.343884
vn -0.248510 0.967852 -0.038806
vn -0.248510 0.967852 -0.038806
vn -0.248510 0.967852 -0.038806
vn -0.248510 0.967852 -0.038806
vn -0.248510 0.967852 -0.038806
vn -0.248510 0.967852 -0.038806
vn 0.341266 -0.037414 0.939222
vn 0.341266 -0.037414 0.939222
vn 0.341266 -0.037414 0.939222
vn 0.341266 -0.037414 0.939222
vn 0.341266 -0.037414 0.939222
vn -0.325433 0.012970 -0.945476
vn -0.325433 0.012970 -0.945476
vn -0.325433 0.012970 -0.945476
vn -0.325433 0.012970 -0.945476
vn -0.325433 0.012970 -0.945476
vn 0.935189 -0.082364 -0.344438
vn 0.935189 -0.082364 -0.344438
vn 0.935189 -0.082364 -0.344438
vn 0.935189 -0.082364 -0.344438
vn 0.237770 0.794062 0.559402
vn 0.237770 0.794062 0.559402
vn 0.237770 0.794062 0.559402
vn 0.237770 0.794062 0.559402
vn 0.237770 0.794062 0.559402
vn 0.929748 -0.015407 -0.367874
vn 0.929748 -0.015407 -0.367874
vn 0.929748 -0.015407 -0.367874
vn 0.929748 -0.015407 -0.367874
vn 0.077652 0.985533 -0.150645
vn 0.077652 0.985533 -0.150645
vn 0.077652 0.985533 -0.150645
vn 0.077652 0.985533 -0.150645
vn -0.341337 0.060994 -0.937960
vn -0.341337 0.060994 -0.937960
vn -0.341337 0.060994 -0.937960
vn -0.341337 0.060994 -0.937960
vn 0.939438 0.005842 -0.342668
vn 0.939438 0.005842 -0.342668
vn 0.939438 0.005842 -0.342668
vn 0.939438 0.005842 -0.342668
vn 0.047905 0.998649 0.020108
vn 0.047905 0.998649 0.020108
vn 0.047905 0.998649 0.020108
vn 0.047905 0.998649 0.020108
vn -0.341308 0.061018 -0.937969
vn -0.341308 0.061018 -0.937969
vn -0.341308 0.061018 -0.937969
vn -0.341308 0.061018 -0.937969
vn 0.341308 -0.061018 0.937969
vn 0.341308 -0.061018 0.937969
vn 0.341308 -0.061018 0.937969
vn 0.341308 -0.061018 0.937969
vn -0.938240 0.038083 0.343884
vn -0.938240 0.038083 0.343884
vn -0.938240 0.038083 0.343884
vn -0.938240 0.038083 0.343884
vn -0.470575 -0.860838 0.193696
vn -0.470575 -0.860838 0.193696
vn -0.470575 -0.860838 0.193696
vn -0.470575 -0.860838 0.193696
vn -0.690670 0.047661 -0.721598
vn -0.690670 0.047661 -0.721598
vn -0.690670 0.047661 -0.721598
vn -0.690670 0.047661 -0.721598
vn -0.505201 -0.849436 0.152418
vn -0.505201 -0.849436 0.152418
vn -0.505201 -0.849436 0.152418
vn -0.505201 -0.849436 0.152418
vn 0.332561 -0.023210 0.942796
vn 0.332561 -0.023210 0.942796
vn 0.332561 -0.023210 0.942796
vn 0.332561 -0.023210 0.942796
vn -0.938240 0.038083 0.343884
vn -0.938240 0.038083 0.343884
vn -0.938240 0.038083 0.343884
vn -0.938240 0.038083 0.343884
vn -0.938240 0.038083 0.343884
vn -0.938240 0.038083 0.343884
vn 0.950399 -0.070019 0.303049
vn 0.950399 -0.070019 0.303049
vn 0.950399 -0.070019 0.303049
vn 0.950399 -0.070019 0.303049
vn 0.120065 -0.809253 0.575060
vn 0.120065 -0.809253 0.575060
vn 0.120065 -0.809253 0.575060
vn 0.120065 -0.809253 0.575060
vn 0.126973 -0.026056 0.991564
vn 0.126973 -0.026056 0.991564
vn 0.126973 -0.026056 0.991564
vn 0.126973 -0.026056 0.991564
vn 0.436283 -0.039054 0.898962
vn 0.436283 -0.039054 0.898962
vn 0.436283 -0.039054 0.898962
vn 0.436283 -0.039054 0.898962
vn -0.704807 0.048491 -0.707740
vn -0.704807 0.048491 -0.707740
vn -0.704807 0.048491 -0.707740
vn -0.704807 0.048491 -0.707740
vn 0.206080 0.522428 0.827405
vn 0.206080 0.522428 0.827405
vn 0.206080 0.522428 0.827405
vn 0.206080 0.522428 0.827405
vn -0.711866 0.618962 -0.331863
vn -0.711866 0.618962 -0.331863
vn -0.711866 0.618962 -0.331863
vn -0.521796 0.007857 0.853034
vn -0.521796 0.007857 0.853034
vn -0.521796 0.007857 0.853034
vn -0.521796 0.007857 0.853034
vn -0.521796 0.007857 0.853034
vn -0.754179 0.302750 0.582715
vn -0.754179 0.302750 0.582715
vn -0.754179 0.302750 0.582715
vn -0.419592 0.001851 0.907711
vn -0.419592 0.001851 0.907711
vn -0.419592 0.001851 0.907711
vn -0.419592 0.001851 0.907711
vn -0.419592 0.001851 0.907711
vn -0.419592 0.001851 0.907711
vn 0.031668 0.753812 0.656327
vn 0.031668 0.753812 0.656327
vn 0.031668 0.753812 0.656327
vn 0.031668 0.753812 0.656327
vn 0.002713 0.975640 -0.219362
vn 0.002713 0.975640 -0.219362
vn 0.002713 0.975640 -0.219362
vn 0.002713 0.975640 -0.219362
vn 0.002713 0.975640 -0.219362
vn -0.334904 0.591145 0.733749
vn -0.334904 0.591145 0.733749
vn -0.334904 0.591145 0.733749
vn -0.334904 0.591145 0.733749
vn 0.047905 0.998649 0.020108
vn 0.047905 0.998649 0.020108
vn 0.047905 0.998649 0.020108
vn 0.047905 0.998649 0.020108
vn 0.047905 0.998649 0.020108
vn 0.047905 0.998649 0.020108
s 1
g polySurface2 SmallRock1
usemtl initialShadingGroup
f 2//1 4//2 1//3
f 1//3 4//2 3//4
s 2
f 6//5 2//6 24//7
f 24//7 2//6 23//8
s 3
f 24//9 25//10 38//11
f 26//12 39//13 25//10
f 25//10 39//13 38//11
s 4
f 24//14 38//15 6//16
f 42//17 41//18 40//19
f 6//16 38//15 41//18
f 41//18 38//15 40//19
s 6
f 10//20 9//21 11//22
f 9//21 44//23 11//22
f 44//23 43//24 11//22
s 7
f 12//25 4//26 37//27
f 2//28 35//29 4//26
f 4//26 35//29 37//27
s 8
f 8//30 4//31 13//32
f 13//32 4//31 12//33
s 9
f 13//34 48//35 29//36
f 47//37 30//38 48//35
f 48//35 30//38 29//36
s 10
f 15//39 14//40 17//41
f 17//41 14//40 16//42
s 11
f 8//43 9//44 14//45
f 14//45 9//44 16//46
s 12
f 8//47 14//48 7//49
f 7//49 14//48 15//50
s 13
f 19//51 18//52 20//53
f 20//53 18//52 21//54
s 14
f 4//55 8//56 18//57
f 18//57 8//56 21//58
s 15
f 4//59 18//60 3//61
f 3//61 18//60 19//62
s 16
f 8//63 7//64 21//65
f 21//65 7//64 20//66
s 17
f 25//67 24//68 22//69
f 22//69 24//68 23//70
s 18
f 11//71 26//72 5//73
f 5//73 26//72 25//74
s 19
f 1//75 22//76 2//77
f 2//77 22//76 23//78
s 20
f 5//79 25//80 1//81
f 1//81 25//80 22//82
s 21
f 27//83 29//84 28//85
f 28//85 29//84 30//86
s 22
f 2//87 6//88 35//89
f 6//88 46//90 35//89
f 45//91 36//92 46//90
f 46//90 36//92 35//89
s 23
f 13//93 29//94 8//95
f 8//95 29//94 27//96
s 24
f 6//97 8//98 28//99
f 28//99 8//98 27//100
s 25
f 31//101 32//102 33//103
f 33//103 32//102 34//104
s 26
f 16//105 33//106 17//107
f 17//107 33//106 34//108
s 27
f 9//109 10//110 31//111
f 31//111 10//110 32//112
s 28
f 16//113 9//114 33//115
f 33//115 9//114 31//116
s off
f 35//117 36//118 37//119
s 29
f 6//120 28//121 46//122
f 47//123 46//122 30//124
f 46//122 28//121 30//124
s off
f 38//125 39//126 40//127
s 30
f 11//128 43//129 26//130
f 26//130 43//129 39//131
f 42//132 40//133 43//129
f 43//129 40//133 39//131
s 31
f 43//134 44//135 42//136
f 41//137 42//136 44//135
s 32
f 8//138 6//139 9//140
f 6//139 41//141 9//140
f 41//141 44//142 9//140
s 33
f 46//143 47//144 45//145
f 45//145 47//144 48//146
s 34
f 13//147 12//148 48//149
f 12//148 37//150 48//149
f 45//151 48//149 36//152
f 37//150 36//152 48//149
