# This file uses centimeters as units for non-parametric coordinates.

mtllib rock1.mtl
g default
v 0.647966 -0.083303 20.612631
v 2.286612 -0.083303 20.172811
v 2.739575 -0.083303 18.083817
v -0.218033 -0.083303 15.669405
v -1.816125 -0.083303 18.229712
v 0.125304 1.725436 20.072717
v 0.441453 2.114287 16.553339
v -1.221457 1.941832 17.981220
v -0.061541 4.977658 19.118295
v 2.141771 1.768287 18.110895
v -0.732998 4.312023 18.434237
v 0.615217 4.440019 17.457237
vt 0.000000 0.200000
vt 0.200000 0.066667
vt 0.400000 0.300000
vt 0.600000 0.200000
vt 0.800000 0.200000
vt 1.000000 0.200000
vt 0.100000 0.450000
vt 0.600000 0.500000
vt 0.800000 0.400000
vt 1.000000 0.400000
vt 0.100000 0.816667
vt 0.400000 0.600000
vt 0.800000 0.700000
vt 0.950000 0.850000
vt 0.500000 0.800000
vt 0.700000 1.000000
vn 0.243656 0.341387 0.907792
vn 0.243656 0.341387 0.907792
vn 0.243656 0.341387 0.907792
vn 0.631990 0.762764 0.137037
vn 0.712343 0.549492 0.436608
vn 0.710464 0.563861 0.421072
vn 0.627742 0.120920 -0.768972
vn 0.627742 0.120920 -0.768972
vn 0.627742 0.120920 -0.768972
vn -0.768464 0.423545 -0.479659
vn -0.746880 0.324535 -0.580385
vn -0.752528 0.345295 -0.560779
vn -0.654140 0.100090 -0.749722
vn -0.695102 0.013698 0.718780
vn -0.733570 0.102877 0.671782
vn -0.758776 0.175212 0.627343
vn -0.788375 0.297570 0.538440
vn 0.679621 0.209140 0.703119
vn 0.682375 0.230457 -0.693725
vn 0.682375 0.230457 -0.693725
vn 0.682375 0.230457 -0.693725
vn -0.643284 0.269538 -0.716614
vn -0.576771 0.449934 -0.681832
vn -0.621334 0.290693 -0.727628
vn -0.835605 0.068019 0.545103
vn -0.823681 0.082097 0.561079
vn -0.803194 0.104936 0.586402
vn -0.770722 0.138255 0.621991
vn 0.673681 0.243475 0.697764
vn 0.735114 0.316483 0.599537
vn 0.776634 0.374079 0.506858
vn 0.836490 0.520139 0.172453
vn 0.682900 0.219743 -0.696679
vn 0.682900 0.219743 -0.696679
vn 0.682900 0.219743 -0.696679
vn -0.558279 0.420247 -0.715344
vn -0.383923 0.821181 -0.422214
s off
g pSphere2
usemtl initialShadingGroup
f 2/2/1 6/7/2 1/1/3
s 1
f 2/2/4 3/3/5 6/7/6
s off
f 3/3/7 4/4/8 7/8/9
s 2
f 4/4/10 5/5/11 7/8/12
f 7/8/12 5/5/11 8/9/13
s 3
f 1/6/14 6/10/15 5/5/16
f 5/5/16 6/10/15 8/9/17
s 1
f 6/7/6 3/3/5 10/12/18
s off
f 3/3/19 7/8/20 10/12/21
s 4
f 8/9/22 11/13/23 7/8/24
s 5
f 8/9/25 6/10/26 11/13/27
f 11/13/27 6/10/26 9/14/28
s 6
f 6/7/29 10/12/30 9/11/31
f 9/11/31 10/12/30 12/15/32
s off
f 12/15/33 10/12/34 7/8/35
s 4
f 7/8/24 11/13/23 12/15/36
f 12/15/36 11/13/23 9/16/37
