# This file uses centimeters as units for non-parametric coordinates.

mtllib rock05.mtl
g default
v 3.828703 -0.226384 61.286698
v 3.712500 -0.226384 59.388140
v 0.485699 -0.226384 58.079689
v -1.104128 -0.226384 60.591689
v 0.793644 -0.226384 62.879955
v 3.170669 1.158988 61.059454
v 0.054309 1.547501 59.936349
v 0.849150 0.861327 62.154490
v 2.458949 2.716377 60.781362
v 1.275026 1.281198 58.983804
v 1.432071 1.990218 62.127806
v 0.977200 2.637753 59.926816
v 1.588743 2.818056 61.732921
vt 0.000000 0.200000
vt 0.200000 0.066667
vt 0.400000 0.300000
vt 0.600000 0.200000
vt 0.800000 0.200000
vt 1.000000 0.200000
vt 0.100000 0.450000
vt 0.600000 0.500000
vt 0.800000 0.400000
vt 1.000000 0.400000
vt 0.100000 0.816667
vt 0.400000 0.600000
vt 0.800000 0.600000
vt 0.950000 0.850000
vt 0.500000 0.800000
vt 0.800000 0.800000
vt 0.700000 1.000000
vn 0.905386 0.420957 -0.055415
vn 0.905386 0.420957 -0.055415
vn 0.905386 0.420957 -0.055415
vn 0.233042 0.784475 -0.574709
vn 0.466548 0.563024 -0.682156
vn 0.347241 0.690895 -0.634103
vn -0.796487 0.333916 -0.504091
vn -0.796487 0.333916 -0.504091
vn -0.796487 0.333916 -0.504091
vn -0.619180 0.594068 0.513517
vn -0.675802 0.543872 0.497489
vn -0.642339 0.574360 0.507456
vn -0.858842 0.313840 0.404840
vn 0.436482 0.343711 0.831472
vn 0.419775 0.369275 0.829111
vn 0.372735 0.436511 0.818857
vn 0.310242 0.516485 0.798119
vn 0.738795 0.017220 -0.673710
vn -0.396744 0.615905 -0.680629
vn -0.396744 0.615905 -0.680629
vn -0.396744 0.615905 -0.680629
vn -0.802729 0.424405 0.418935
vn -0.812337 0.452670 0.367694
vn -0.748341 0.558652 0.357621
vn 0.438944 -0.205983 0.874585
vn 0.583205 0.211933 0.784192
vn 0.531253 0.022662 0.846910
vn 0.611101 0.401120 0.682392
vn 0.727264 0.216027 -0.651474
vn 0.603689 0.379871 -0.700898
vn 0.658306 0.313884 -0.684186
vn 0.382660 0.582513 -0.717112
vn -0.500754 0.417253 -0.758384
vn -0.500754 0.417253 -0.758383
vn -0.500754 0.417253 -0.758383
vn -0.747930 0.578844 0.324869
vn -0.910886 0.304986 0.277977
vn 0.735962 0.172947 0.654561
vn 0.735962 0.172947 0.654561
vn 0.735962 0.172947 0.654561
vn 0.005577 0.994850 -0.101204
vn 0.005577 0.994850 -0.101204
vn 0.005577 0.994850 -0.101204
s off
g pSphere1
usemtl initialShadingGroup
f 2/2/1 6/7/2 1/1/3
s 1
f 2/2/4 3/3/5 6/7/6
s off
f 3/3/7 4/4/8 7/8/9
s 2
f 4/4/10 5/5/11 7/8/12
f 7/8/12 5/5/11 8/9/13
s 3
f 1/6/14 6/10/15 5/5/16
f 5/5/16 6/10/15 8/9/17
s 1
f 6/7/6 3/3/5 10/12/18
s off
f 3/3/19 7/8/20 10/12/21
s 4
f 8/9/22 11/13/23 7/8/24
s 5
f 8/9/25 6/10/26 11/13/27
f 11/13/27 6/10/26 9/14/28
s 6
f 6/7/29 10/12/30 9/11/31
f 9/11/31 10/12/30 12/15/32
s off
f 12/15/33 10/12/34 7/8/35
s 4
f 7/8/24 11/13/23 12/15/36
f 12/15/36 11/13/23 13/16/37
s off
f 11/13/38 9/14/39 13/16/40
f 12/15/41 13/16/42 9/17/43
