# This file uses centimeters as units for non-parametric coordinates.

mtllib rock04.mtl
g default
v 1.693506 3.235908 56.754940
v 3.738243 3.219001 56.474176
v -3.894263 -0.150016 54.492463
v 3.632416 1.068398 56.745920
v -3.336059 2.642214 53.397820
v 4.550596 -0.148541 54.163206
v 3.624924 2.850368 52.881743
v -0.884183 3.212625 56.507848
v 1.125386 3.280133 54.966207
v 3.018015 -0.149390 56.840914
v 0.303528 2.958298 52.741436
v -3.545459 1.259897 55.982468
v -3.653958 -0.147758 55.762431
v -2.408422 2.506490 52.781813
v 4.369569 2.899808 53.325737
v 4.651852 2.752137 53.737911
v -3.465430 2.036551 52.800559
v 1.338927 -0.149553 57.451722
v 3.618277 3.054717 56.725805
v 2.993380 -0.170070 52.430971
v 1.250756 2.991543 52.985064
v 1.424130 2.814204 52.703580
v -0.789053 -0.149395 56.817879
v 4.341727 -0.149613 54.914446
v -0.146355 -0.080850 52.691009
v 3.488632 1.541827 56.893417
v 3.688924 -0.148692 56.500106
v 1.149179 3.229660 56.739963
v -3.765973 1.023721 52.913703
v 1.360174 -0.149641 52.389300
v 1.231310 2.971562 54.027228
v -2.584639 2.935392 55.901936
v 3.274024 -0.149615 53.438966
v -2.998227 1.502943 56.100455
v 1.137372 3.271876 54.726879
v -3.563457 0.663031 56.087543
v 0.793425 3.267192 54.882431
v -1.035430 2.808890 52.743627
v 4.658986 1.785801 53.553660
v 0.195452 -0.149524 57.332533
v -2.977875 2.750697 55.544275
v -3.830512 -0.148396 53.302396
v -2.892470 2.886315 55.500253
v 1.035732 3.465878 56.547159
v -3.022043 2.616119 52.899441
v 1.226685 3.057082 54.849908
v -1.888643 2.804533 52.795856
v -2.002119 2.588349 52.768705
v 0.621850 -0.138655 52.574971
v 4.535320 3.061245 54.785940
vt 0.629729 0.762877
vt 0.537156 0.243674
vt 0.143953 0.239746
vt 0.671214 0.099076
vt 0.383192 0.443132
vt 0.405666 0.027758
vt 0.754478 0.139077
vt 0.298848 0.024777
vt 0.114860 0.026502
vt 0.469850 0.230182
vt 0.053133 0.174714
vt 0.301965 0.444698
vt 0.756599 0.314777
vt 0.748327 0.445686
vt 0.742522 0.238698
vt 0.734199 0.463554
vt 0.676917 0.217606
vt 0.627303 0.464178
vt 0.596330 0.445512
vt 0.513971 0.416910
vt 0.529762 0.297792
vt 0.223891 0.445225
vt 0.508557 0.443971
vt 0.538590 0.566261
vt 0.545600 0.670907
vt 0.408375 0.686881
vt 0.370448 0.686813
vt 0.355426 0.709119
vt 0.068994 0.575445
vt 0.550512 0.529970
vt 0.226378 0.687819
vt 0.009127 0.455324
vt 0.561202 0.443669
vt 0.098834 0.677751
vt 0.028953 0.560303
vt 0.027357 0.517800
vt 0.059963 0.671529
vt 0.063600 0.682581
vt 0.297445 0.232831
vt 0.309750 0.255598
vt 0.351678 0.024598
vt 0.376571 0.242021
vt 0.188035 0.015159
vt 0.082929 0.252732
vt 0.537214 0.214002
vt 0.529587 0.229360
vt 0.047535 0.245634
vt 0.010982 0.038152
vt 0.565378 0.208435
vt 0.639245 0.175719
vt 0.608816 0.217200
vt 0.666177 0.012751
vt 0.761482 0.050119
vt 0.832235 0.017588
vt 0.965730 0.110318
vt 0.928959 0.017488
vt 0.986653 0.150996
vt 0.964188 0.068712
vt 0.957438 0.243804
vt 0.757755 0.218670
vt 0.956721 0.255439
vt 0.805485 0.255337
vt 0.766681 0.269388
vt 0.082982 0.712906
vt 0.236848 0.699474
vt 0.250791 0.792623
vt 0.031051 0.744429
vt 0.251412 0.850456
vt 0.257555 0.983153
vt 0.006710 0.771541
vt 0.019991 0.847241
vt 0.076364 0.965554
vt 0.219483 0.984437
vt 0.084275 0.986764
vt 0.594219 0.909959
vt 0.571957 0.937705
vt 0.450812 0.978112
vt 0.315409 0.978688
vt 0.334830 0.862368
vt 0.311735 0.865724
vt 0.610700 0.726909
vt 0.373419 0.711773
vt 0.467210 0.713272
vt 0.295795 0.990294
vt 0.541061 0.711535
vt 0.568089 0.715877
vt 0.311009 0.850520
vt 0.525237 0.716752
vt 0.295653 0.857445
vt 0.306859 0.727007
vt 0.293802 0.857147
vt 0.295690 0.799037
vt 0.292743 0.704885
vt 0.027616 0.943172
vt 0.040731 0.963225
vt 0.027616 0.976925
vt 0.013302 0.965357
vn 0.575383 0.731230 0.366383
vn -0.003513 0.994639 -0.103348
vn 0.001067 0.859788 0.510651
vn 0.725194 0.675742 0.132157
vn 0.575383 0.731230 0.366383
vn 0.909650 -0.158318 0.384022
vn -0.441783 -0.209045 0.872426
vn -0.327309 -0.184514 0.926727
vn -0.298958 0.133187 0.944926
vn 0.725194 0.675742 0.132157
vn -0.003513 0.994639 -0.103348
vn 0.575383 0.731230 0.366383
vn -0.835182 0.547940 0.047259
vn -0.693622 0.506521 0.512176
vn -0.502972 0.544135 0.671518
vn -0.719816 0.485512 0.496128
vn -0.735846 0.673758 -0.067686
vn -0.872858 0.429983 -0.230723
vn -0.025168 0.993517 -0.110863
vn -0.051593 0.707144 -0.705184
vn -0.078304 0.677827 -0.731040
vn -0.264845 0.124692 0.956195
vn -0.298958 0.133187 0.944926
vn -0.327309 -0.184514 0.926727
vn -0.735846 0.673758 -0.067686
vn -0.525465 0.839117 0.140604
vn -0.266748 0.773631 0.574752
vn 0.911738 -0.309824 0.269710
vn 0.725194 0.675742 0.132157
vn 0.909650 -0.158318 0.384022
vn 0.992439 -0.022905 0.120586
vn 0.994474 -0.036409 0.098465
vn 0.889508 -0.142749 -0.434048
vn 0.319243 -0.030495 0.947182
vn 0.515148 0.400234 0.757915
vn 0.047394 0.244137 0.968582
vn 0.515148 0.400234 0.757915
vn 0.001067 0.859788 0.510651
vn 0.047394 0.244137 0.968582
vn -0.835182 0.547940 0.047259
vn -0.635057 -0.665365 -0.392418
vn -0.741539 -0.668675 0.054715
vn -0.502972 0.544135 0.671518
vn -0.872858 0.429983 -0.230723
vn -0.835182 0.547940 0.047259
vn -0.185710 -0.871094 0.454649
vn -0.441783 -0.209045 0.872426
vn -0.648371 -0.669399 0.362657
vn -0.693622 0.506521 0.512176
vn -0.835182 0.547940 0.047259
vn -0.741539 -0.668675 0.054715
vn 0.397184 0.873919 0.280197
vn -0.735846 0.673758 -0.067686
vn -0.266748 0.773631 0.574752
vn 0.125666 0.716537 0.686136
vn -0.198904 0.232149 0.952126
vn 0.047394 0.244137 0.968582
vn 0.444208 0.894536 -0.049838
vn 0.497893 0.782876 -0.373106
vn 0.125666 0.716537 0.686136
vn 0.263286 -0.745932 0.611773
vn 0.319243 -0.030495 0.947182
vn 0.034552 -0.639477 0.768034
vn 0.010669 0.095853 -0.995338
vn 0.060349 0.089473 -0.994159
vn 0.032319 0.158246 -0.986871
vn -0.154602 -0.721554 -0.674876
vn -0.098097 0.000767 -0.995177
vn -0.016120 -0.645747 -0.763381
vn 0.495632 0.839455 0.222855
vn 0.373458 0.889670 -0.262711
vn -0.051593 0.707144 -0.705184
vn -0.745080 0.070412 0.663248
vn -0.693622 0.506521 0.512176
vn -0.648371 -0.669399 0.362657
vn -0.693622 0.506521 0.512176
vn -0.745080 0.070412 0.663248
vn -0.502972 0.544135 0.671518
vn -0.025168 0.993517 -0.110863
vn -0.101595 0.984445 -0.143343
vn 0.397184 0.873919 0.280197
vn 0.497893 0.782876 -0.373106
vn 0.397184 0.873919 0.280197
vn 0.125666 0.716537 0.686136
vn -0.648371 -0.669399 0.362657
vn -0.693622 0.506521 0.512176
vn -0.741539 -0.668675 0.054715
vn -0.771266 0.168084 -0.613919
vn -0.303142 0.492165 -0.816014
vn -0.369104 0.128822 -0.920417
vn -0.025168 0.993517 -0.110863
vn -0.078304 0.677827 -0.731040
vn -0.101595 0.984445 -0.143343
vn 0.889508 -0.142749 -0.434048
vn 0.304820 -0.790888 -0.530642
vn 0.715675 -0.289519 -0.635600
vn -0.369104 0.128822 -0.920417
vn -0.303142 0.492165 -0.816014
vn -0.075043 -0.165810 -0.983298
vn 0.589499 -0.206097 -0.781035
vn 0.380891 -0.035707 -0.923930
vn 0.889508 -0.142749 -0.434048
vn 0.162701 0.184417 -0.969288
vn 0.296379 0.029881 -0.954603
vn 0.589499 -0.206097 -0.781035
vn 0.915090 0.359033 -0.183592
vn 0.503031 0.670162 -0.545749
vn 0.725194 0.675742 0.132157
vn 0.380891 -0.035707 -0.923930
vn 0.503031 0.670162 -0.545749
vn 0.702556 -0.022706 -0.711266
vn -0.771266 0.168084 -0.613919
vn -0.237206 0.754442 -0.612006
vn -0.057442 0.604327 -0.794663
vn -0.101595 0.984445 -0.143343
vn -0.057442 0.604327 -0.794663
vn -0.021268 0.981432 -0.190629
vn -0.014698 -0.647902 -0.761582
vn 0.296379 0.029881 -0.954603
vn 0.162701 0.184417 -0.969288
vn 0.001067 0.859788 0.510651
vn 0.515148 0.400234 0.757915
vn 0.575383 0.731230 0.366383
vn 0.909650 -0.158318 0.384022
vn 0.575383 0.731230 0.366383
vn 0.515148 0.400234 0.757915
vn -0.303142 0.492165 -0.816014
vn -0.057442 0.604327 -0.794663
vn -0.101595 0.984445 -0.143343
vn -0.057442 0.604327 -0.794663
vn -0.303142 0.492165 -0.816014
vn -0.771266 0.168084 -0.613919
vn -0.441783 -0.209045 0.872426
vn -0.185710 -0.871094 0.454649
vn -0.327309 -0.184514 0.926727
vn 0.373458 0.889670 -0.262711
vn 0.495632 0.839455 0.222855
vn 0.444208 0.894536 -0.049838
vn 0.047484 0.348137 -0.936240
vn -0.051593 0.707144 -0.705184
vn 0.373458 0.889670 -0.262711
vn 0.580472 -0.662240 0.473804
vn 0.680581 -0.690521 0.244928
vn 0.920520 -0.135071 0.366604
vn -0.771266 0.168084 -0.613919
vn -0.735846 0.673758 -0.067686
vn -0.237206 0.754442 -0.612006
vn 0.221795 0.651897 -0.725147
vn 0.057802 0.650239 -0.757528
vn -0.003513 0.994639 -0.103348
vn 0.741879 0.667092 -0.067845
vn 0.057802 0.650239 -0.757528
vn 0.373458 0.889670 -0.262711
vn 0.047394 0.244137 0.968582
vn -0.198904 0.232149 0.952126
vn -0.141084 0.129857 0.981444
vn 0.515148 0.400234 0.757915
vn 0.513105 0.004296 0.858315
vn 0.737402 -0.089856 0.669451
vn 0.263286 -0.745932 0.611773
vn 0.737402 -0.089856 0.669451
vn 0.513105 0.004296 0.858315
vn -0.098097 0.000767 -0.995177
vn 0.010669 0.095853 -0.995338
vn -0.016120 -0.645747 -0.763381
vn 0.737402 -0.089856 0.669451
vn 0.263286 -0.745932 0.611773
vn 0.580472 -0.662240 0.473804
vn 0.125666 0.716537 0.686136
vn 0.047394 0.244137 0.968582
vn 0.001067 0.859788 0.510651
vn 0.001067 0.859788 0.510651
vn -0.003513 0.994639 -0.103348
vn 0.125666 0.716537 0.686136
vn 0.741879 0.667092 -0.067845
vn -0.003513 0.994639 -0.103348
vn 0.057802 0.650239 -0.757528
vn -0.003513 0.994639 -0.103348
vn 0.444208 0.894536 -0.049838
vn 0.125666 0.716537 0.686136
vn -0.266748 0.773631 0.574752
vn -0.441529 0.709173 0.549661
vn -0.719816 0.485512 0.496128
vn -0.871587 0.342575 0.350682
vn -0.735846 0.673758 -0.067686
vn -0.719816 0.485512 0.496128
vn 0.497893 0.782876 -0.373106
vn -0.025168 0.993517 -0.110863
vn 0.397184 0.873919 0.280197
vn 0.444208 0.894536 -0.049838
vn -0.025168 0.993517 -0.110863
vn 0.497893 0.782876 -0.373106
vn 0.495632 0.839455 0.222855
vn -0.025168 0.993517 -0.110863
vn 0.444208 0.894536 -0.049838
vn -0.025168 0.993517 -0.110863
vn 0.495632 0.839455 0.222855
vn -0.051593 0.707144 -0.705184
vn 0.702556 -0.022706 -0.711266
vn 0.503031 0.670162 -0.545749
vn 0.915090 0.359033 -0.183592
vn 0.047484 0.348137 -0.936240
vn -0.048503 0.081823 -0.995466
vn -0.051593 0.707144 -0.705184
vn -0.101595 0.984445 -0.143343
vn -0.078304 0.677827 -0.731040
vn -0.322927 0.941201 -0.099290
vn -0.871587 0.342575 0.350682
vn -0.719816 0.485512 0.496128
vn -0.441529 0.709173 0.549661
vn -0.525465 0.839117 0.140604
vn -0.441529 0.709173 0.549661
vn -0.266748 0.773631 0.574752
vn -0.706780 -0.227271 -0.669933
vn -0.075043 -0.165810 -0.983298
vn -0.075409 -0.831455 -0.550452
vn -0.735846 0.673758 -0.067686
vn -0.871587 0.342575 0.350682
vn -0.525465 0.839117 0.140604
vn -0.871587 0.342575 0.350682
vn -0.441529 0.709173 0.549661
vn -0.525465 0.839117 0.140604
vn -0.075409 -0.831455 -0.550452
vn -0.635057 -0.665365 -0.392418
vn -0.706780 -0.227271 -0.669933
vn -0.107322 0.698015 0.707995
vn 0.397184 0.873919 0.280197
vn -0.266748 0.773631 0.574752
vn -0.141772 -0.406106 -0.902762
vn -0.098097 0.000767 -0.995177
vn -0.154602 -0.721554 -0.674876
vn 0.954998 -0.043326 0.293431
vn 0.918850 -0.029243 0.393521
vn 0.680581 -0.690521 0.244928
vn 0.444208 0.894536 -0.049838
vn -0.003513 0.994639 -0.103348
vn 0.741879 0.667092 -0.067845
vn 0.373458 0.889670 -0.262711
vn 0.444208 0.894536 -0.049838
vn 0.741879 0.667092 -0.067845
vn -0.303142 0.492165 -0.816014
vn -0.101595 0.984445 -0.143343
vn -0.322927 0.941201 -0.099290
vn -0.303142 0.492165 -0.816014
vn -0.457504 0.728133 -0.510404
vn -0.078304 0.677827 -0.731040
vn 0.992439 -0.022905 0.120586
vn 0.725194 0.675742 0.132157
vn 0.911738 -0.309824 0.269710
s off
g rockFBXASC03202
usemtl initialShadingGroup
f 2/72/1 15/67/2 1/73/3
f 50/13/4 2/14/5 4/19/6
f 36/36/7 40/12/8 34/29/9
f 50/71/10 15/67/11 2/72/12
f 29/7/13 12/55/14 34/57/15
f 34/57/16 5/62/17 17/60/18
f 37/79/19 11/82/20 38/83/21
f 8/31/22 34/29/23 40/12/24
f 5/1/25 43/75/26 8/77/27
f 6/2/28 50/13/29 4/19/30
f 16/15/31 6/2/32 39/17/33
f 26/24/34 19/25/35 18/5/36
f 19/25/37 1/26/38 18/5/39
f 29/7/40 42/53/41 3/54/42
f 34/57/43 17/60/44 29/7/45
f 23/22/46 36/36/47 13/32/48
f 12/55/49 29/7/50 3/54/51
f 44/78/52 5/1/53 8/77/54
f 28/27/55 8/31/56 18/5/57
f 46/89/58 9/80/59 28/84/60
f 10/23/61 26/24/62 18/5/63
f 22/39/64 7/3/65 30/8/66
f 49/41/67 38/10/68 30/8/69
f 35/87/70 21/90/71 11/82/72
f 36/58/73 12/55/74 13/56/75
f 12/35/76 36/36/77 34/29/78
f 37/79/79 5/1/80 44/78/81
f 9/80/82 44/78/83 28/84/84
f 13/56/85 12/55/86 3/54/87
f 17/50/88 48/45/89 29/4/90
f 37/79/91 38/83/92 5/1/93
f 39/11/94 6/48/95 33/9/96
f 29/4/97 48/45/98 38/10/99
f 33/9/100 7/3/101 39/11/102
f 20/43/103 7/3/104 33/9/105
f 16/70/106 15/67/107 50/71/108
f 7/3/109 15/44/110 39/11/111
f 17/50/112 45/51/113 14/49/114
f 5/1/115 14/86/116 45/81/117
f 30/8/118 7/3/119 20/43/120
f 1/73/121 19/74/122 2/72/123
f 4/19/124 2/14/125 19/16/126
f 48/85/127 14/86/128 5/1/129
f 14/49/130 48/45/131 17/50/132
f 36/36/133 23/22/134 40/12/135
f 21/90/136 35/87/137 46/91/138
f 22/39/139 11/42/140 21/40/141
f 27/20/142 24/21/143 4/19/144
f 17/60/145 5/62/146 45/63/147
f 7/64/148 22/65/149 15/67/150
f 31/92/151 22/93/152 21/90/153
f 18/5/154 8/31/155 40/12/156
f 19/16/157 26/18/158 4/19/159
f 10/23/160 4/30/161 26/24/162
f 38/10/163 22/39/164 30/8/165
f 4/30/166 10/23/167 27/33/168
f 28/27/169 18/5/170 1/26/171
f 1/73/172 15/67/173 28/69/174
f 31/66/175 15/67/176 22/65/177
f 15/67/178 46/68/179 28/69/180
f 8/31/181 32/34/182 34/29/183
f 41/59/184 5/62/185 34/57/186
f 9/80/187 37/79/188 44/78/189
f 46/96/190 37/94/191 9/95/192
f 35/97/193 37/94/194 46/96/195
f 37/79/196 35/87/197 11/82/198
f 39/11/199 15/44/200 16/47/201
f 22/39/202 38/10/203 11/42/204
f 5/1/205 38/83/206 47/88/207
f 41/37/208 34/29/209 32/34/210
f 43/75/211 32/76/212 8/77/213
f 29/4/214 38/10/215 25/6/216
f 5/62/217 41/59/218 43/61/219
f 41/37/220 32/34/221 43/38/222
f 25/6/223 42/52/224 29/4/225
f 28/27/226 44/28/227 8/31/228
f 25/6/229 38/10/230 49/41/231
f 6/2/232 4/19/233 24/21/234
f 46/68/235 15/67/236 31/66/237
f 21/90/238 46/91/239 31/92/240
f 48/85/241 5/1/242 47/88/243
f 48/45/244 47/46/245 38/10/246
f 16/15/247 50/13/248 6/2/249
